<?xml version="1.0" encoding="UTF-8"?>
<svg width="97px" height="56px" viewBox="0 0 97 56" version="1.1" xmlns="http://www.w3.org/2000/svg" xmlns:xlink="http://www.w3.org/1999/xlink">
    <!-- Generator: Sketch 49.2 (51160) - http://www.bohemiancoding.com/sketch -->
    <title>Group</title>
    <desc>Created with Sketch.</desc>
    <defs>
        <path d="M86.8247713,1.40205688 L47.5045368,40.4898815 L8.18430221,1.39735199 C6.30963702,-0.465783997 3.27711359,-0.465783997 1.40244839,1.39735199 C-0.467482798,3.26048798 -0.467482798,6.27906626 1.40244839,8.14220225 L44.1114401,50.602648 C45.9813713,52.465784 49.0186287,52.465784 50.8885599,50.602648 C54.6871147,46.8262339 57.5360308,43.9939233 59.4353081,42.1057162 C67.0269178,34.5583558 78.4143323,23.2373152 93.5975516,8.14259432 C95.4674828,6.27945833 95.4674828,3.25617517 93.5975516,1.39303918 C91.7323544,-0.461079108 88.6947025,-0.461079108 86.8247713,1.40205688 Z" id="path-1"></path>
        <filter x="-2.1%" y="-3.8%" width="106.3%" height="115.4%" filterUnits="objectBoundingBox" id="filter-2">
            <feOffset dx="2" dy="4" in="SourceAlpha" result="shadowOffsetOuter1"></feOffset>
            <feColorMatrix values="0 0 0 0 0.968627451   0 0 0 0 0.878431373   0 0 0 0 0.737254902  0 0 0 1 0" type="matrix" in="shadowOffsetOuter1"></feColorMatrix>
        </filter>
    </defs>
    <g id="ProjectInfo" stroke="none" stroke-width="1" fill="none" fill-rule="evenodd">
        <g id="Project-Side" transform="translate(-215.000000, -937.000000)" fill-rule="nonzero">
            <g id="Group" transform="translate(215.000000, 937.000000)">
                <g id="download-copy-3" transform="translate(47.500000, 26.000000) rotate(-360.000000) translate(-47.500000, -26.000000) ">
                    <g id="Expand_More">
                        <use fill="black" fill-opacity="1" filter="url(#filter-2)" xlink:href="#path-1"></use>
                        <use fill="#5345E4" fill-rule="evenodd" xlink:href="#path-1"></use>
                    </g>
                </g>
            </g>
        </g>
    </g>
</svg>